<svg width="26" height="19" viewBox="0 0 26 19" fill="none" xmlns="http://www.w3.org/2000/svg">
<path d="M0.200195 1.5999C0.200195 1.28164 0.326623 0.976418 0.551667 0.751374C0.776711 0.52633 1.08194 0.399902 1.4002 0.399902H24.6002C24.9185 0.399902 25.2237 0.52633 25.4487 0.751374C25.6738 0.976418 25.8002 1.28164 25.8002 1.5999C25.8002 1.91816 25.6738 2.22339 25.4487 2.44843C25.2237 2.67347 24.9185 2.7999 24.6002 2.7999H1.4002C1.08194 2.7999 0.776711 2.67347 0.551667 2.44843C0.326623 2.22339 0.200195 1.91816 0.200195 1.5999ZM0.200195 9.5999C0.200195 9.28164 0.326623 8.97642 0.551667 8.75138C0.776711 8.52633 1.08194 8.3999 1.4002 8.3999H24.6002C24.9185 8.3999 25.2237 8.52633 25.4487 8.75138C25.6738 8.97642 25.8002 9.28164 25.8002 9.5999C25.8002 9.91816 25.6738 10.2234 25.4487 10.4484C25.2237 10.6735 24.9185 10.7999 24.6002 10.7999H1.4002C1.08194 10.7999 0.776711 10.6735 0.551667 10.4484C0.326623 10.2234 0.200195 9.91816 0.200195 9.5999ZM1.4002 16.3999C1.08194 16.3999 0.776711 16.5263 0.551667 16.7514C0.326623 16.9764 0.200195 17.2816 0.200195 17.5999C0.200195 17.9182 0.326623 18.2234 0.551667 18.4484C0.776711 18.6735 1.08194 18.7999 1.4002 18.7999H24.6002C24.9185 18.7999 25.2237 18.6735 25.4487 18.4484C25.6738 18.2234 25.8002 17.9182 25.8002 17.5999C25.8002 17.2816 25.6738 16.9764 25.4487 16.7514C25.2237 16.5263 24.9185 16.3999 24.6002 16.3999H1.4002Z" fill="white"/>
</svg>
