<svg width="14" height="12" viewBox="0 0 14 12" fill="none" xmlns="http://www.w3.org/2000/svg">
<path d="M13.9735 1.99999C13.4602 2.23332 12.9069 2.38666 12.3335 2.45999C12.9202 2.10666 13.3735 1.54666 13.5869 0.873323C13.0335 1.20666 12.4202 1.43999 11.7735 1.57332C11.2469 0.99999 10.5069 0.666656 9.66686 0.666656C8.10019 0.666656 6.82019 1.94666 6.82019 3.52666C6.82019 3.75332 6.84686 3.97332 6.89352 4.17999C4.52019 4.05999 2.40686 2.91999 1.00019 1.19332C0.753522 1.61332 0.613522 2.10666 0.613522 2.62666C0.613522 3.61999 1.11352 4.49999 1.88686 4.99999C1.41352 4.99999 0.973522 4.86666 0.586856 4.66666V4.68666C0.586856 6.07332 1.57352 7.23332 2.88019 7.49332C2.46067 7.60813 2.02025 7.6241 1.59352 7.53999C1.77459 8.10831 2.12921 8.60559 2.60753 8.96194C3.08585 9.31829 3.66382 9.51578 4.26019 9.52666C3.24928 10.3269 1.99619 10.7595 0.706855 10.7533C0.480189 10.7533 0.253522 10.74 0.0268555 10.7133C1.29352 11.5267 2.80019 12 4.41352 12C9.66686 12 12.5535 7.63999 12.5535 3.85999C12.5535 3.73332 12.5535 3.61332 12.5469 3.48666C13.1069 3.08666 13.5869 2.57999 13.9735 1.99999Z" fill="white"/>
</svg>
